<?xml version="1.0" encoding="utf-8"?>
<!-- Generator: Adobe Illustrator 18.0.0, SVG Export Plug-In . SVG Version: 6.00 Build 0)  -->
<!DOCTYPE svg PUBLIC "-//W3C//DTD SVG 1.1//EN" "http://www.w3.org/Graphics/SVG/1.1/DTD/svg11.dtd">
<svg version="1.1" id="Слой_1" xmlns="http://www.w3.org/2000/svg" xmlns:xlink="http://www.w3.org/1999/xlink" x="0px" y="0px"
	 viewBox="0 0 275.1 308" enable-background="new 0 0 275.1 308" xml:space="preserve">
<g id="Прямоугольник_1_xA0_Обтравочный_контур">
	<rect x="-1354.9" y="-1098" fill="none" width="1924" height="1102"/>
</g>
<image overflow="visible" width="253" height="252" id="Многоугольник_2_xA0_Изображение_2_" xlink:href="47F99B53.png"  transform="matrix(1 0 0 1 23.1416 0)">
</image>
<image overflow="visible" width="229" height="262" id="Многоугольник_2_копия_xA0_Изображение_2_" xlink:href="47F99B51.png"  transform="matrix(1 0 0 1 12.1416 20)">
</image>
<image overflow="visible" width="257" height="248" id="Многоугольник_2_копия_2_xA0_Изображение_2_" xlink:href="47F99B57.png"  transform="matrix(1 0 0 1 18.1416 60)">
</image>
<g id="Прямоугольник_8">
	<g>
		<polygon fill-rule="evenodd" clip-rule="evenodd" fill="#ECEBEB" points="138.9,125.2 138.5,125.4 162.6,181.7 170.3,161.1 		"/>
	</g>
</g>
<g id="Прямоугольник_8_копия">
	<g>
		<polygon fill-rule="evenodd" clip-rule="evenodd" fill="#FFFFFF" points="200.2,91.2 154.3,143.1 162.8,180 200.8,91.5 		"/>
	</g>
</g>
<image overflow="visible" width="23" height="28" id="Слой_14_xA0_Изображение_2_" xlink:href="47F99B50.png"  transform="matrix(1 0 0 1 163.1416 125)">
</image>
<image overflow="visible" width="46" height="46" id="Многоугольник_1_копия_2_xA0_Изображение_2_" xlink:href="47F99B5E.png"  transform="matrix(1 0 0 1 199.1416 103)">
</image>
<image overflow="visible" width="37" height="46" id="Слой_11_xA0_Изображение_2_" xlink:href="47F99B5F.png"  transform="matrix(1 0 0 1 209.1416 104)">
</image>
<image overflow="visible" width="207" height="207" id="Многоугольник_1_xA0_Изображение_2_" xlink:href="47F99B52.png"  transform="matrix(1 0 0 1 50.1416 26)">
</image>
<image overflow="visible" width="31" height="100" id="Слой_10_xA0_Изображение_2_" xlink:href="47F99B55.png"  transform="matrix(1 0 0 1 210.1416 80)">
</image>
<image overflow="visible" width="103" height="102" id="Многоугольник_1_копия_xA0_Изображение_2_" xlink:href="47F99B56.png"  transform="matrix(1 0 0 1 165.1416 71)">
</image>
<text transform="matrix(0.7077 -0.7066 0.7075 0.7067 77.2931 139.7795)" fill="#FFFFFF" font-family="'GLGothamBlack'" font-size="18">КАЧЕСТВЕННо</text>
</svg>
