<?xml version="1.0" encoding="utf-8"?>
<!-- Generator: Adobe Illustrator 18.0.0, SVG Export Plug-In . SVG Version: 6.00 Build 0)  -->
<!DOCTYPE svg PUBLIC "-//W3C//DTD SVG 1.1//EN" "http://www.w3.org/Graphics/SVG/1.1/DTD/svg11.dtd">
<svg version="1.1" id="Слой_1" xmlns="http://www.w3.org/2000/svg" xmlns:xlink="http://www.w3.org/1999/xlink" x="0px" y="0px"
	 viewBox="0 0 259 260" enable-background="new 0 0 259 260" xml:space="preserve">
<image overflow="visible" width="217" height="217" id="Эллипс_5_xA0_Изображение_3_" xlink:href="A23C4515.png"  transform="matrix(1 0 0 1 21 21)">
</image>
<image overflow="visible" width="238" height="238" id="Эллипс_5_копия_xA0_Изображение_3_" xlink:href="A23C4517.png"  transform="matrix(1 0 0 1 11 11)">
</image>
<image overflow="visible" width="259" height="260" id="Эллипс_5_копия_2_xA0_Изображение_3_" xlink:href="A23C4512.png" >
</image>
<image overflow="visible" width="102" height="89" id="Векторный_смарт-объект_xA0_Изображение_1_" xlink:href="A23C4513.png"  transform="matrix(1 0 0 1 82 88)">
</image>
<image overflow="visible" width="29" height="25" id="Слой_12_xA0_Изображение_3_" xlink:href="A23C451D.png"  transform="matrix(1 0 0 1 138 88)">
</image>
<image overflow="visible" width="91" height="91" id="Эллипс_3_копия_xA0_Изображение_3_" xlink:href="A23C451F.png"  transform="matrix(1 0 0 1 133 10)">
</image>
<image overflow="visible" width="86" height="74" id="Слой_6_xA0_Изображение_3_" xlink:href="A23C4510.png"  transform="matrix(1 0 0 1 135 24)">
</image>
<image overflow="visible" width="187" height="187" id="Эллипс_3_xA0_Изображение_3_" xlink:href="A23C4511.png"  transform="matrix(1 0 0 1 36 37)">
</image>
<image overflow="visible" width="53" height="38" id="Слой_7_xA0_Изображение_3_" xlink:href="A23C4516.png"  transform="matrix(1 0 0 1 152 39)">
</image>
<image overflow="visible" width="35" height="35" id="Эллипс_3_копия_2_xA0_Изображение_3_" xlink:href="72B5FC1E.png"  transform="matrix(1 0 0 1 163 37)">
</image>
<path id="SVGID_x5F_1_x5F_" fill="none" d="M193.6,206c-41.8,35.4-104.4,30.3-139.9-11.4C18.3,152.8,23.4,90.3,65.2,54.9
	S169.6,24.5,205,66.3C240.5,108,193.6,206,193.6,206z"/>
<text><textPath  xlink:href="#SVGID_x5F_1_x5F_" startOffset="98.462%">
<tspan  fill="#FFFFFF" font-family="'GLGothamBlack'" font-size="18">                          ОПЫТНАЯ  КОМАНДА</tspan></textPath>
</text>
</svg>
